<?xml version="1.0" encoding="utf-8" standalone="no"?>
<!DOCTYPE svg PUBLIC "-//W3C//DTD SVG 1.1//EN"
  "http://www.w3.org/Graphics/SVG/1.1/DTD/svg11.dtd">
<svg xmlns:xlink="http://www.w3.org/1999/xlink" width="576pt" height="432pt" viewBox="0 0 576 432" xmlns="http://www.w3.org/2000/svg" version="1.1">
 <metadata>
  <rdf:RDF xmlns:dc="http://purl.org/dc/elements/1.1/" xmlns:cc="http://creativecommons.org/ns#" xmlns:rdf="http://www.w3.org/1999/02/22-rdf-syntax-ns#">
   <cc:Work>
    <dc:type rdf:resource="http://purl.org/dc/dcmitype/StillImage"/>
    <dc:date>2026-07-11T12:14:43.291704</dc:date>
    <dc:format>image/svg+xml</dc:format>
    <dc:creator>
     <cc:Agent>
      <dc:title>Matplotlib v3.9.2, https://matplotlib.org/</dc:title>
     </cc:Agent>
    </dc:creator>
   </cc:Work>
  </rdf:RDF>
 </metadata>
 <defs>
  <style type="text/css">*{stroke-linejoin: round; stroke-linecap: butt}</style>
 </defs>
 <g id="figure_1">
  <g id="patch_1">
   <path d="M 0 432 
L 576 432 
L 576 0 
L 0 0 
z
" style="fill: #ffffff"/>
  </g>
  <g id="axes_1">
   <g id="patch_2">
    <path d="M 54.2 390.04 
L 565.2 390.04 
L 565.2 25.44 
L 54.2 25.44 
z
" style="fill: #ffffff"/>
   </g>
   <g id="PolyCollection_1">
    <defs>
     <path id="mb7ca11193c" d="M 140.347107 -103.514918 
L 138.386226 -103.514918 
L 137.511043 -104.529017 
L 136.144698 -105.543115 
L 134.232688 -106.557214 
L 131.855754 -107.571313 
L 129.269879 -108.585412 
L 126.877201 -109.59951 
L 125.113936 -110.613609 
L 124.29038 -111.627708 
L 124.456831 -112.641807 
L 125.363315 -113.655906 
L 126.526804 -114.670004 
L 127.355426 -115.684103 
L 127.256548 -116.698202 
L 125.693027 -117.712301 
L 122.216671 -118.7264 
L 116.542488 -119.740498 
L 108.697518 -120.754597 
L 99.199467 -121.768696 
L 89.148166 -122.782795 
L 80.106017 -123.796894 
L 73.726999 -124.810992 
L 71.233333 -125.825091 
L 72.951042 -126.83919 
L 78.119318 -127.853289 
L 85.070978 -128.867387 
L 91.716032 -129.881486 
L 96.14858 -130.895585 
L 97.181738 -131.909684 
L 94.661418 -132.923783 
L 89.46927 -133.937881 
L 83.198778 -134.95198 
L 77.601558 -135.966079 
L 74.023009 -136.980178 
L 73.078319 -137.994277 
L 74.693191 -139.008375 
L 78.413457 -140.022474 
L 83.740004 -141.036573 
L 90.283709 -142.050672 
L 97.712016 -143.06477 
L 105.61758 -144.078869 
L 113.463436 -145.092968 
L 120.661892 -146.107067 
L 126.728915 -147.121166 
L 131.410447 -148.135264 
L 134.713548 -149.149363 
L 136.844249 -150.163462 
L 138.101325 -151.177561 
L 138.780035 -152.19166 
L 139.115564 -153.205758 
L 139.267516 -154.219857 
L 139.330577 -155.233956 
L 139.354566 -156.248055 
L 139.362932 -157.262153 
L 139.365606 -158.276252 
L 139.36639 -159.290351 
L 139.3666 -160.30445 
L 139.366652 -161.318549 
L 139.366664 -162.332647 
L 139.366666 -163.346746 
L 139.366667 -164.360845 
L 139.366667 -165.374944 
L 139.366667 -166.389043 
L 139.366667 -167.403141 
L 139.366667 -168.41724 
L 139.366667 -169.431339 
L 139.366667 -170.445438 
L 139.366667 -171.459537 
L 139.366667 -172.473635 
L 139.366667 -173.487734 
L 139.366667 -174.501833 
L 139.366667 -175.515932 
L 139.366667 -176.53003 
L 139.366667 -177.544129 
L 139.366667 -178.558228 
L 139.366666 -179.572327 
L 139.366664 -180.586426 
L 139.366654 -181.600524 
L 139.366617 -182.614623 
L 139.366486 -183.628722 
L 139.366064 -184.642821 
L 139.364837 -185.65692 
L 139.361605 -186.671018 
L 139.353905 -187.685117 
L 139.337348 -188.699216 
L 139.305295 -189.713315 
L 139.249609 -190.727413 
L 139.163227 -191.741512 
L 139.044502 -192.755611 
L 138.901804 -193.76971 
L 138.755476 -194.783809 
L 138.634461 -195.797907 
L 138.567396 -196.812006 
L 138.57168 -197.826105 
L 138.646173 -198.840204 
L 138.771682 -199.854303 
L 138.918968 -200.868401 
L 139.059715 -201.8825 
L 139.174906 -202.896599 
L 139.257509 -203.910698 
L 139.475824 -203.910698 
L 139.475824 -203.910698 
L 139.558428 -202.896599 
L 139.673619 -201.8825 
L 139.814365 -200.868401 
L 139.961651 -199.854303 
L 140.087161 -198.840204 
L 140.161653 -197.826105 
L 140.165937 -196.812006 
L 140.098872 -195.797907 
L 139.977857 -194.783809 
L 139.83153 -193.76971 
L 139.688832 -192.755611 
L 139.570107 -191.741512 
L 139.483724 -190.727413 
L 139.428038 -189.713315 
L 139.395985 -188.699216 
L 139.379429 -187.685117 
L 139.371728 -186.671018 
L 139.368496 -185.65692 
L 139.367269 -184.642821 
L 139.366847 -183.628722 
L 139.366716 -182.614623 
L 139.366679 -181.600524 
L 139.366669 -180.586426 
L 139.366667 -179.572327 
L 139.366667 -178.558228 
L 139.366667 -177.544129 
L 139.366667 -176.53003 
L 139.366667 -175.515932 
L 139.366667 -174.501833 
L 139.366667 -173.487734 
L 139.366667 -172.473635 
L 139.366667 -171.459537 
L 139.366667 -170.445438 
L 139.366667 -169.431339 
L 139.366667 -168.41724 
L 139.366667 -167.403141 
L 139.366667 -166.389043 
L 139.366667 -165.374944 
L 139.366667 -164.360845 
L 139.366667 -163.346746 
L 139.36667 -162.332647 
L 139.366681 -161.318549 
L 139.366733 -160.30445 
L 139.366944 -159.290351 
L 139.367727 -158.276252 
L 139.370402 -157.262153 
L 139.378767 -156.248055 
L 139.402756 -155.233956 
L 139.465818 -154.219857 
L 139.617769 -153.205758 
L 139.953299 -152.19166 
L 140.632008 -151.177561 
L 141.889084 -150.163462 
L 144.019785 -149.149363 
L 147.322886 -148.135264 
L 152.004419 -147.121166 
L 158.071442 -146.107067 
L 165.269898 -145.092968 
L 173.115753 -144.078869 
L 181.021318 -143.06477 
L 188.449624 -142.050672 
L 194.993329 -141.036573 
L 200.319877 -140.022474 
L 204.040143 -139.008375 
L 205.655014 -137.994277 
L 204.710324 -136.980178 
L 201.131775 -135.966079 
L 195.534555 -134.95198 
L 189.264063 -133.937881 
L 184.071915 -132.923783 
L 181.551595 -131.909684 
L 182.584753 -130.895585 
L 187.017302 -129.881486 
L 193.662355 -128.867387 
L 200.614015 -127.853289 
L 205.782292 -126.83919 
L 207.5 -125.825091 
L 205.006335 -124.810992 
L 198.627317 -123.796894 
L 189.585167 -122.782795 
L 179.533867 -121.768696 
L 170.035816 -120.754597 
L 162.190845 -119.740498 
L 156.516663 -118.7264 
L 153.040306 -117.712301 
L 151.476786 -116.698202 
L 151.377908 -115.684103 
L 152.20653 -114.670004 
L 153.370018 -113.655906 
L 154.276502 -112.641807 
L 154.442953 -111.627708 
L 153.619398 -110.613609 
L 151.856132 -109.59951 
L 149.463455 -108.585412 
L 146.87758 -107.571313 
L 144.500645 -106.557214 
L 142.588636 -105.543115 
L 141.22229 -104.529017 
L 140.347107 -103.514918 
z
" style="stroke: #474747; stroke-width: 1.25"/>
    </defs>
    <g clip-path="url(#p79ea07ef0e)">
     <use xlink:href="#mb7ca11193c" x="0" y="432" style="fill: #ddb06d; stroke: #474747; stroke-width: 1.25"/>
    </g>
   </g>
   <g id="PolyCollection_2">
    <defs>
     <path id="mfc7811e8a2" d="M 311.247967 -77.496779 
L 308.152033 -77.496779 
L 307.396038 -80.268147 
L 306.347794 -83.039516 
L 304.931089 -85.810884 
L 303.065368 -88.582253 
L 300.672171 -91.353621 
L 297.683894 -94.12499 
L 294.05447 -96.896358 
L 289.771031 -99.667727 
L 284.865087 -102.439095 
L 279.421399 -105.210463 
L 273.582524 -107.981832 
L 267.547311 -110.7532 
L 261.562244 -113.524569 
L 255.905578 -116.295937 
L 250.865451 -119.067306 
L 246.714361 -121.838674 
L 243.683233 -124.610043 
L 241.938676 -127.381411 
L 241.566667 -130.15278 
L 242.564963 -132.924148 
L 244.845207 -135.695516 
L 248.244156 -138.466885 
L 252.542167 -141.238253 
L 257.48609 -144.009622 
L 262.813336 -146.78099 
L 268.274035 -149.552359 
L 273.648802 -152.323727 
L 278.760569 -155.095096 
L 283.48 -157.866464 
L 287.724983 -160.637832 
L 291.455491 -163.409201 
L 294.665511 -166.180569 
L 297.373879 -168.951938 
L 299.615555 -171.723306 
L 301.434438 -174.494675 
L 302.878209 -177.266043 
L 303.995191 -180.037412 
L 304.832779 -182.80878 
L 305.436861 -185.580148 
L 305.851627 -188.351517 
L 306.119326 -191.122885 
L 306.279776 -193.894254 
L 306.369582 -196.665622 
L 306.421213 -199.436991 
L 306.462107 -202.208359 
L 306.513972 -204.979728 
L 306.592392 -207.751096 
L 306.706784 -210.522464 
L 306.8607 -213.293833 
L 307.05242 -216.065201 
L 307.275807 -218.83657 
L 307.521334 -221.607938 
L 307.777222 -224.379307 
L 308.030606 -227.150675 
L 308.268639 -229.922044 
L 308.479444 -232.693412 
L 308.652843 -235.46478 
L 308.78084 -238.236149 
L 308.857841 -241.007517 
L 308.880679 -243.778886 
L 308.848505 -246.550254 
L 308.762622 -249.321623 
L 308.626348 -252.092991 
L 308.444933 -254.86436 
L 308.225543 -257.635728 
L 307.977264 -260.407096 
L 307.711044 -263.178465 
L 307.439483 -265.949833 
L 307.176365 -268.721202 
L 306.935876 -271.49257 
L 306.731515 -274.263939 
L 306.574783 -277.035307 
L 306.473826 -279.806676 
L 306.432286 -282.578044 
L 306.448608 -285.349412 
L 306.516033 -288.120781 
L 306.623376 -290.892149 
L 306.756541 -293.663518 
L 306.900564 -296.434886 
L 307.041836 -299.206255 
L 307.170091 -301.977623 
L 307.279796 -304.748992 
L 307.370656 -307.52036 
L 307.44717 -310.291728 
L 307.517342 -313.063097 
L 307.59083 -315.834465 
L 307.67693 -318.605834 
L 307.782778 -321.377202 
L 307.91211 -324.148571 
L 308.06475 -326.919939 
L 308.236851 -329.691308 
L 308.421747 -332.462676 
L 308.611185 -335.234044 
L 308.79665 -338.005413 
L 308.970533 -340.776781 
L 309.126969 -343.54815 
L 309.262259 -346.319518 
L 309.374906 -349.090887 
L 309.465318 -351.862255 
L 309.934682 -351.862255 
L 309.934682 -351.862255 
L 310.025094 -349.090887 
L 310.137741 -346.319518 
L 310.273031 -343.54815 
L 310.429467 -340.776781 
L 310.60335 -338.005413 
L 310.788815 -335.234044 
L 310.978253 -332.462676 
L 311.163149 -329.691308 
L 311.33525 -326.919939 
L 311.48789 -324.148571 
L 311.617222 -321.377202 
L 311.72307 -318.605834 
L 311.80917 -315.834465 
L 311.882658 -313.063097 
L 311.95283 -310.291728 
L 312.029344 -307.52036 
L 312.120204 -304.748992 
L 312.229909 -301.977623 
L 312.358164 -299.206255 
L 312.499436 -296.434886 
L 312.643459 -293.663518 
L 312.776624 -290.892149 
L 312.883967 -288.120781 
L 312.951392 -285.349412 
L 312.967714 -282.578044 
L 312.926174 -279.806676 
L 312.825217 -277.035307 
L 312.668485 -274.263939 
L 312.464124 -271.49257 
L 312.223635 -268.721202 
L 311.960517 -265.949833 
L 311.688956 -263.178465 
L 311.422736 -260.407096 
L 311.174457 -257.635728 
L 310.955067 -254.86436 
L 310.773652 -252.092991 
L 310.637378 -249.321623 
L 310.551495 -246.550254 
L 310.519321 -243.778886 
L 310.542159 -241.007517 
L 310.61916 -238.236149 
L 310.747157 -235.46478 
L 310.920556 -232.693412 
L 311.131361 -229.922044 
L 311.369394 -227.150675 
L 311.622778 -224.379307 
L 311.878666 -221.607938 
L 312.124193 -218.83657 
L 312.34758 -216.065201 
L 312.5393 -213.293833 
L 312.693216 -210.522464 
L 312.807608 -207.751096 
L 312.886028 -204.979728 
L 312.937893 -202.208359 
L 312.978787 -199.436991 
L 313.030418 -196.665622 
L 313.120224 -193.894254 
L 313.280674 -191.122885 
L 313.548373 -188.351517 
L 313.963139 -185.580148 
L 314.567221 -182.80878 
L 315.404809 -180.037412 
L 316.521791 -177.266043 
L 317.965562 -174.494675 
L 319.784445 -171.723306 
L 322.026121 -168.951938 
L 324.734489 -166.180569 
L 327.944509 -163.409201 
L 331.675017 -160.637832 
L 335.92 -157.866464 
L 340.639431 -155.095096 
L 345.751198 -152.323727 
L 351.125965 -149.552359 
L 356.586664 -146.78099 
L 361.91391 -144.009622 
L 366.857833 -141.238253 
L 371.155844 -138.466885 
L 374.554793 -135.695516 
L 376.835037 -132.924148 
L 377.833333 -130.15278 
L 377.461324 -127.381411 
L 375.716767 -124.610043 
L 372.685639 -121.838674 
L 368.534549 -119.067306 
L 363.494422 -116.295937 
L 357.837756 -113.524569 
L 351.852689 -110.7532 
L 345.817476 -107.981832 
L 339.978601 -105.210463 
L 334.534913 -102.439095 
L 329.628969 -99.667727 
L 325.34553 -96.896358 
L 321.716106 -94.12499 
L 318.727829 -91.353621 
L 316.334632 -88.582253 
L 314.468911 -85.810884 
L 313.052206 -83.039516 
L 312.003962 -80.268147 
L 311.247967 -77.496779 
z
" style="stroke: #474747; stroke-width: 1.25"/>
    </defs>
    <g clip-path="url(#p79ea07ef0e)">
     <use xlink:href="#mfc7811e8a2" x="0" y="432" style="fill: #d87e81; stroke: #474747; stroke-width: 1.25"/>
    </g>
   </g>
   <g id="PolyCollection_3">
    <defs>
     <path id="m858c577d42" d="M 481.720819 -58.532727 
L 478.345847 -58.532727 
L 477.728681 -61.880753 
L 476.929831 -65.228779 
L 475.912444 -68.576804 
L 474.637804 -71.92483 
L 473.06716 -75.272856 
L 471.164104 -78.620882 
L 468.897455 -81.968907 
L 466.244502 -85.316933 
L 463.194414 -88.664959 
L 459.751537 -92.012984 
L 455.938242 -95.36101 
L 451.796993 -98.709036 
L 447.391263 -102.057062 
L 442.805053 -105.405087 
L 438.1408 -108.753113 
L 433.515638 -112.101139 
L 429.056132 -115.449164 
L 424.89176 -118.79719 
L 421.147591 -122.145216 
L 417.936719 -125.493242 
L 415.353083 -128.841267 
L 413.465313 -132.189293 
L 412.312167 -135.537319 
L 411.9 -138.885344 
L 412.202509 -142.23337 
L 413.16281 -145.581396 
L 414.697655 -148.929421 
L 416.703416 -152.277447 
L 419.063298 -155.625473 
L 421.655151 -158.973499 
L 424.359212 -162.321524 
L 427.06515 -165.66955 
L 429.677884 -169.017576 
L 432.121782 -172.365601 
L 434.343016 -175.713627 
L 436.310037 -179.061653 
L 438.012285 -182.409679 
L 439.457393 -185.757704 
L 440.667265 -189.10573 
L 441.673459 -192.453756 
L 442.51233 -195.801781 
L 443.220383 -199.149807 
L 443.830221 -202.497833 
L 444.367406 -205.845859 
L 444.848466 -209.193884 
L 445.280138 -212.54191 
L 445.659864 -215.889936 
L 445.97743 -219.237961 
L 446.217533 -222.585987 
L 446.362989 -225.934013 
L 446.398226 -229.282039 
L 446.312674 -232.630064 
L 446.103665 -235.97809 
L 445.778507 -239.326116 
L 445.355446 -242.674141 
L 444.863379 -246.022167 
L 444.340286 -249.370193 
L 443.830518 -252.718219 
L 443.381206 -256.066244 
L 443.038187 -259.41427 
L 442.841898 -262.762296 
L 442.82373 -266.110321 
L 443.003262 -269.458347 
L 443.386729 -272.806373 
L 443.966887 -276.154399 
L 444.724303 -279.502424 
L 445.629894 -282.85045 
L 446.648392 -286.198476 
L 447.742306 -289.546501 
L 448.875888 -292.894527 
L 450.018644 -296.242553 
L 451.147989 -299.590579 
L 452.250784 -302.938604 
L 453.323636 -306.28663 
L 454.372013 -309.634656 
L 455.408364 -312.982681 
L 456.449546 -316.330707 
L 457.513922 -319.678733 
L 458.618494 -323.026758 
L 459.776425 -326.374784 
L 460.995185 -329.72281 
L 462.275491 -333.070836 
L 463.611086 -336.418861 
L 464.989293 -339.766887 
L 466.392206 -343.114913 
L 467.798323 -346.462938 
L 469.184398 -349.810964 
L 470.527288 -353.15899 
L 471.805626 -356.507016 
L 473.001155 -359.855041 
L 474.099667 -363.203067 
L 475.091495 -366.551093 
L 475.971597 -369.899118 
L 476.739278 -373.247144 
L 477.397646 -376.59517 
L 477.95289 -379.943196 
L 478.413474 -383.291221 
L 478.789325 -386.639247 
L 479.091094 -389.987273 
L 480.975573 -389.987273 
L 480.975573 -389.987273 
L 481.277342 -386.639247 
L 481.653193 -383.291221 
L 482.113777 -379.943196 
L 482.669021 -376.59517 
L 483.327389 -373.247144 
L 484.09507 -369.899118 
L 484.975171 -366.551093 
L 485.966999 -363.203067 
L 487.065511 -359.855041 
L 488.261041 -356.507016 
L 489.539378 -353.15899 
L 490.882269 -349.810964 
L 492.268344 -346.462938 
L 493.674461 -343.114913 
L 495.077374 -339.766887 
L 496.455581 -336.418861 
L 497.791176 -333.070836 
L 499.071482 -329.72281 
L 500.290241 -326.374784 
L 501.448173 -323.026758 
L 502.552745 -319.678733 
L 503.617121 -316.330707 
L 504.658303 -312.982681 
L 505.694654 -309.634656 
L 506.743031 -306.28663 
L 507.815883 -302.938604 
L 508.918678 -299.590579 
L 510.048023 -296.242553 
L 511.190778 -292.894527 
L 512.32436 -289.546501 
L 513.418274 -286.198476 
L 514.436773 -282.85045 
L 515.342364 -279.502424 
L 516.09978 -276.154399 
L 516.679937 -272.806373 
L 517.063404 -269.458347 
L 517.242937 -266.110321 
L 517.224768 -262.762296 
L 517.02848 -259.41427 
L 516.685461 -256.066244 
L 516.236149 -252.718219 
L 515.726381 -249.370193 
L 515.203288 -246.022167 
L 514.711221 -242.674141 
L 514.28816 -239.326116 
L 513.963002 -235.97809 
L 513.753993 -232.630064 
L 513.66844 -229.282039 
L 513.703678 -225.934013 
L 513.849134 -222.585987 
L 514.089237 -219.237961 
L 514.406803 -215.889936 
L 514.786529 -212.54191 
L 515.218201 -209.193884 
L 515.699261 -205.845859 
L 516.236446 -202.497833 
L 516.846283 -199.149807 
L 517.554336 -195.801781 
L 518.393208 -192.453756 
L 519.399402 -189.10573 
L 520.609274 -185.757704 
L 522.054381 -182.409679 
L 523.756629 -179.061653 
L 525.723651 -175.713627 
L 527.944885 -172.365601 
L 530.388783 -169.017576 
L 533.001517 -165.66955 
L 535.707455 -162.321524 
L 538.411516 -158.973499 
L 541.003369 -155.625473 
L 543.363251 -152.277447 
L 545.369011 -148.929421 
L 546.903857 -145.581396 
L 547.864158 -142.23337 
L 548.166667 -138.885344 
L 547.754499 -135.537319 
L 546.601354 -132.189293 
L 544.713584 -128.841267 
L 542.129948 -125.493242 
L 538.919076 -122.145216 
L 535.174907 -118.79719 
L 531.010535 -115.449164 
L 526.551029 -112.101139 
L 521.925867 -108.753113 
L 517.261613 -105.405087 
L 512.675404 -102.057062 
L 508.269674 -98.709036 
L 504.128424 -95.36101 
L 500.31513 -92.012984 
L 496.872252 -88.664959 
L 493.822164 -85.316933 
L 491.169211 -81.968907 
L 488.902562 -78.620882 
L 486.999507 -75.272856 
L 485.428863 -71.92483 
L 484.154223 -68.576804 
L 483.136835 -65.228779 
L 482.337986 -61.880753 
L 481.720819 -58.532727 
z
" style="stroke: #474747; stroke-width: 1.25"/>
    </defs>
    <g clip-path="url(#p79ea07ef0e)">
     <use xlink:href="#m858c577d42" x="0" y="432" style="fill: #41ad95; stroke: #474747; stroke-width: 1.25"/>
    </g>
   </g>
   <g id="matplotlib.axis_1">
    <g id="xtick_1">
     <g id="line2d_1">
      <defs>
       <path id="m281610ba08" d="M 0 0 
L 0 3.5 
" style="stroke: #000000; stroke-width: 0.8"/>
      </defs>
      <g>
       <use xlink:href="#m281610ba08" x="139.366667" y="390.04" style="stroke: #000000; stroke-width: 0.8"/>
      </g>
     </g>
     <g id="text_1">
      <!-- low risk -->
      <g transform="translate(120.295573 404.638438) scale(0.1 -0.1)">
       <defs>
        <path id="DejaVuSans-6c" d="M 603 4863 
L 1178 4863 
L 1178 0 
L 603 0 
L 603 4863 
z
" transform="scale(0.015625)"/>
        <path id="DejaVuSans-6f" d="M 1959 3097 
Q 1497 3097 1228 2736 
Q 959 2375 959 1747 
Q 959 1119 1226 758 
Q 1494 397 1959 397 
Q 2419 397 2687 759 
Q 2956 1122 2956 1747 
Q 2956 2369 2687 2733 
Q 2419 3097 1959 3097 
z
M 1959 3584 
Q 2709 3584 3137 3096 
Q 3566 2609 3566 1747 
Q 3566 888 3137 398 
Q 2709 -91 1959 -91 
Q 1206 -91 779 398 
Q 353 888 353 1747 
Q 353 2609 779 3096 
Q 1206 3584 1959 3584 
z
" transform="scale(0.015625)"/>
        <path id="DejaVuSans-77" d="M 269 3500 
L 844 3500 
L 1563 769 
L 2278 3500 
L 2956 3500 
L 3675 769 
L 4391 3500 
L 4966 3500 
L 4050 0 
L 3372 0 
L 2619 2869 
L 1863 0 
L 1184 0 
L 269 3500 
z
" transform="scale(0.015625)"/>
        <path id="DejaVuSans-20" transform="scale(0.015625)"/>
        <path id="DejaVuSans-72" d="M 2631 2963 
Q 2534 3019 2420 3045 
Q 2306 3072 2169 3072 
Q 1681 3072 1420 2755 
Q 1159 2438 1159 1844 
L 1159 0 
L 581 0 
L 581 3500 
L 1159 3500 
L 1159 2956 
Q 1341 3275 1631 3429 
Q 1922 3584 2338 3584 
Q 2397 3584 2469 3576 
Q 2541 3569 2628 3553 
L 2631 2963 
z
" transform="scale(0.015625)"/>
        <path id="DejaVuSans-69" d="M 603 3500 
L 1178 3500 
L 1178 0 
L 603 0 
L 603 3500 
z
M 603 4863 
L 1178 4863 
L 1178 4134 
L 603 4134 
L 603 4863 
z
" transform="scale(0.015625)"/>
        <path id="DejaVuSans-73" d="M 2834 3397 
L 2834 2853 
Q 2591 2978 2328 3040 
Q 2066 3103 1784 3103 
Q 1356 3103 1142 2972 
Q 928 2841 928 2578 
Q 928 2378 1081 2264 
Q 1234 2150 1697 2047 
L 1894 2003 
Q 2506 1872 2764 1633 
Q 3022 1394 3022 966 
Q 3022 478 2636 193 
Q 2250 -91 1575 -91 
Q 1294 -91 989 -36 
Q 684 19 347 128 
L 347 722 
Q 666 556 975 473 
Q 1284 391 1588 391 
Q 1994 391 2212 530 
Q 2431 669 2431 922 
Q 2431 1156 2273 1281 
Q 2116 1406 1581 1522 
L 1381 1569 
Q 847 1681 609 1914 
Q 372 2147 372 2553 
Q 372 3047 722 3315 
Q 1072 3584 1716 3584 
Q 2034 3584 2315 3537 
Q 2597 3491 2834 3397 
z
" transform="scale(0.015625)"/>
        <path id="DejaVuSans-6b" d="M 581 4863 
L 1159 4863 
L 1159 1991 
L 2875 3500 
L 3609 3500 
L 1753 1863 
L 3688 0 
L 2938 0 
L 1159 1709 
L 1159 0 
L 581 0 
L 581 4863 
z
" transform="scale(0.015625)"/>
       </defs>
       <use xlink:href="#DejaVuSans-6c"/>
       <use xlink:href="#DejaVuSans-6f" x="27.783203"/>
       <use xlink:href="#DejaVuSans-77" x="88.964844"/>
       <use xlink:href="#DejaVuSans-20" x="170.751953"/>
       <use xlink:href="#DejaVuSans-72" x="202.539062"/>
       <use xlink:href="#DejaVuSans-69" x="243.652344"/>
       <use xlink:href="#DejaVuSans-73" x="271.435547"/>
       <use xlink:href="#DejaVuSans-6b" x="323.535156"/>
      </g>
     </g>
    </g>
    <g id="xtick_2">
     <g id="line2d_2">
      <g>
       <use xlink:href="#m281610ba08" x="309.7" y="390.04" style="stroke: #000000; stroke-width: 0.8"/>
      </g>
     </g>
     <g id="text_2">
      <!-- mid risk -->
      <g transform="translate(289.732812 404.638438) scale(0.1 -0.1)">
       <defs>
        <path id="DejaVuSans-6d" d="M 3328 2828 
Q 3544 3216 3844 3400 
Q 4144 3584 4550 3584 
Q 5097 3584 5394 3201 
Q 5691 2819 5691 2113 
L 5691 0 
L 5113 0 
L 5113 2094 
Q 5113 2597 4934 2840 
Q 4756 3084 4391 3084 
Q 3944 3084 3684 2787 
Q 3425 2491 3425 1978 
L 3425 0 
L 2847 0 
L 2847 2094 
Q 2847 2600 2669 2842 
Q 2491 3084 2119 3084 
Q 1678 3084 1418 2786 
Q 1159 2488 1159 1978 
L 1159 0 
L 581 0 
L 581 3500 
L 1159 3500 
L 1159 2956 
Q 1356 3278 1631 3431 
Q 1906 3584 2284 3584 
Q 2666 3584 2933 3390 
Q 3200 3197 3328 2828 
z
" transform="scale(0.015625)"/>
        <path id="DejaVuSans-64" d="M 2906 2969 
L 2906 4863 
L 3481 4863 
L 3481 0 
L 2906 0 
L 2906 525 
Q 2725 213 2448 61 
Q 2172 -91 1784 -91 
Q 1150 -91 751 415 
Q 353 922 353 1747 
Q 353 2572 751 3078 
Q 1150 3584 1784 3584 
Q 2172 3584 2448 3432 
Q 2725 3281 2906 2969 
z
M 947 1747 
Q 947 1113 1208 752 
Q 1469 391 1925 391 
Q 2381 391 2643 752 
Q 2906 1113 2906 1747 
Q 2906 2381 2643 2742 
Q 2381 3103 1925 3103 
Q 1469 3103 1208 2742 
Q 947 2381 947 1747 
z
" transform="scale(0.015625)"/>
       </defs>
       <use xlink:href="#DejaVuSans-6d"/>
       <use xlink:href="#DejaVuSans-69" x="97.412109"/>
       <use xlink:href="#DejaVuSans-64" x="125.195312"/>
       <use xlink:href="#DejaVuSans-20" x="188.671875"/>
       <use xlink:href="#DejaVuSans-72" x="220.458984"/>
       <use xlink:href="#DejaVuSans-69" x="261.572266"/>
       <use xlink:href="#DejaVuSans-73" x="289.355469"/>
       <use xlink:href="#DejaVuSans-6b" x="341.455078"/>
      </g>
     </g>
    </g>
    <g id="xtick_3">
     <g id="line2d_3">
      <g>
       <use xlink:href="#m281610ba08" x="480.033333" y="390.04" style="stroke: #000000; stroke-width: 0.8"/>
      </g>
     </g>
     <g id="text_3">
      <!-- high risk -->
      <g transform="translate(458.598958 404.638438) scale(0.1 -0.1)">
       <defs>
        <path id="DejaVuSans-68" d="M 3513 2113 
L 3513 0 
L 2938 0 
L 2938 2094 
Q 2938 2591 2744 2837 
Q 2550 3084 2163 3084 
Q 1697 3084 1428 2787 
Q 1159 2491 1159 1978 
L 1159 0 
L 581 0 
L 581 4863 
L 1159 4863 
L 1159 2956 
Q 1366 3272 1645 3428 
Q 1925 3584 2291 3584 
Q 2894 3584 3203 3211 
Q 3513 2838 3513 2113 
z
" transform="scale(0.015625)"/>
        <path id="DejaVuSans-67" d="M 2906 1791 
Q 2906 2416 2648 2759 
Q 2391 3103 1925 3103 
Q 1463 3103 1205 2759 
Q 947 2416 947 1791 
Q 947 1169 1205 825 
Q 1463 481 1925 481 
Q 2391 481 2648 825 
Q 2906 1169 2906 1791 
z
M 3481 434 
Q 3481 -459 3084 -895 
Q 2688 -1331 1869 -1331 
Q 1566 -1331 1297 -1286 
Q 1028 -1241 775 -1147 
L 775 -588 
Q 1028 -725 1275 -790 
Q 1522 -856 1778 -856 
Q 2344 -856 2625 -561 
Q 2906 -266 2906 331 
L 2906 616 
Q 2728 306 2450 153 
Q 2172 0 1784 0 
Q 1141 0 747 490 
Q 353 981 353 1791 
Q 353 2603 747 3093 
Q 1141 3584 1784 3584 
Q 2172 3584 2450 3431 
Q 2728 3278 2906 2969 
L 2906 3500 
L 3481 3500 
L 3481 434 
z
" transform="scale(0.015625)"/>
       </defs>
       <use xlink:href="#DejaVuSans-68"/>
       <use xlink:href="#DejaVuSans-69" x="63.378906"/>
       <use xlink:href="#DejaVuSans-67" x="91.162109"/>
       <use xlink:href="#DejaVuSans-68" x="154.638672"/>
       <use xlink:href="#DejaVuSans-20" x="218.017578"/>
       <use xlink:href="#DejaVuSans-72" x="249.804688"/>
       <use xlink:href="#DejaVuSans-69" x="290.917969"/>
       <use xlink:href="#DejaVuSans-73" x="318.701172"/>
       <use xlink:href="#DejaVuSans-6b" x="370.800781"/>
      </g>
     </g>
    </g>
    <g id="text_4">
     <!-- Risk level -->
     <g transform="translate(285.857031 418.316562) scale(0.1 -0.1)">
      <defs>
       <path id="DejaVuSans-52" d="M 2841 2188 
Q 3044 2119 3236 1894 
Q 3428 1669 3622 1275 
L 4263 0 
L 3584 0 
L 2988 1197 
Q 2756 1666 2539 1819 
Q 2322 1972 1947 1972 
L 1259 1972 
L 1259 0 
L 628 0 
L 628 4666 
L 2053 4666 
Q 2853 4666 3247 4331 
Q 3641 3997 3641 3322 
Q 3641 2881 3436 2590 
Q 3231 2300 2841 2188 
z
M 1259 4147 
L 1259 2491 
L 2053 2491 
Q 2509 2491 2742 2702 
Q 2975 2913 2975 3322 
Q 2975 3731 2742 3939 
Q 2509 4147 2053 4147 
L 1259 4147 
z
" transform="scale(0.015625)"/>
       <path id="DejaVuSans-65" d="M 3597 1894 
L 3597 1613 
L 953 1613 
Q 991 1019 1311 708 
Q 1631 397 2203 397 
Q 2534 397 2845 478 
Q 3156 559 3463 722 
L 3463 178 
Q 3153 47 2828 -22 
Q 2503 -91 2169 -91 
Q 1331 -91 842 396 
Q 353 884 353 1716 
Q 353 2575 817 3079 
Q 1281 3584 2069 3584 
Q 2775 3584 3186 3129 
Q 3597 2675 3597 1894 
z
M 3022 2063 
Q 3016 2534 2758 2815 
Q 2500 3097 2075 3097 
Q 1594 3097 1305 2825 
Q 1016 2553 972 2059 
L 3022 2063 
z
" transform="scale(0.015625)"/>
       <path id="DejaVuSans-76" d="M 191 3500 
L 800 3500 
L 1894 563 
L 2988 3500 
L 3597 3500 
L 2284 0 
L 1503 0 
L 191 3500 
z
" transform="scale(0.015625)"/>
      </defs>
      <use xlink:href="#DejaVuSans-52"/>
      <use xlink:href="#DejaVuSans-69" x="69.482422"/>
      <use xlink:href="#DejaVuSans-73" x="97.265625"/>
      <use xlink:href="#DejaVuSans-6b" x="149.365234"/>
      <use xlink:href="#DejaVuSans-20" x="207.275391"/>
      <use xlink:href="#DejaVuSans-6c" x="239.0625"/>
      <use xlink:href="#DejaVuSans-65" x="266.845703"/>
      <use xlink:href="#DejaVuSans-76" x="328.369141"/>
      <use xlink:href="#DejaVuSans-65" x="387.548828"/>
      <use xlink:href="#DejaVuSans-6c" x="449.072266"/>
     </g>
    </g>
   </g>
   <g id="matplotlib.axis_2">
    <g id="ytick_1">
     <g id="line2d_4">
      <defs>
       <path id="m94e935d131" d="M 0 0 
L -3.5 0 
" style="stroke: #000000; stroke-width: 0.8"/>
      </defs>
      <g>
       <use xlink:href="#m94e935d131" x="54.2" y="382.801551" style="stroke: #000000; stroke-width: 0.8"/>
      </g>
     </g>
     <g id="text_5">
      <!-- 2.5 -->
      <g transform="translate(31.296875 386.60077) scale(0.1 -0.1)">
       <defs>
        <path id="DejaVuSans-32" d="M 1228 531 
L 3431 531 
L 3431 0 
L 469 0 
L 469 531 
Q 828 903 1448 1529 
Q 2069 2156 2228 2338 
Q 2531 2678 2651 2914 
Q 2772 3150 2772 3378 
Q 2772 3750 2511 3984 
Q 2250 4219 1831 4219 
Q 1534 4219 1204 4116 
Q 875 4013 500 3803 
L 500 4441 
Q 881 4594 1212 4672 
Q 1544 4750 1819 4750 
Q 2544 4750 2975 4387 
Q 3406 4025 3406 3419 
Q 3406 3131 3298 2873 
Q 3191 2616 2906 2266 
Q 2828 2175 2409 1742 
Q 1991 1309 1228 531 
z
" transform="scale(0.015625)"/>
        <path id="DejaVuSans-2e" d="M 684 794 
L 1344 794 
L 1344 0 
L 684 0 
L 684 794 
z
" transform="scale(0.015625)"/>
        <path id="DejaVuSans-35" d="M 691 4666 
L 3169 4666 
L 3169 4134 
L 1269 4134 
L 1269 2991 
Q 1406 3038 1543 3061 
Q 1681 3084 1819 3084 
Q 2600 3084 3056 2656 
Q 3513 2228 3513 1497 
Q 3513 744 3044 326 
Q 2575 -91 1722 -91 
Q 1428 -91 1123 -41 
Q 819 9 494 109 
L 494 744 
Q 775 591 1075 516 
Q 1375 441 1709 441 
Q 2250 441 2565 725 
Q 2881 1009 2881 1497 
Q 2881 1984 2565 2268 
Q 2250 2553 1709 2553 
Q 1456 2553 1204 2497 
Q 953 2441 691 2322 
L 691 4666 
z
" transform="scale(0.015625)"/>
       </defs>
       <use xlink:href="#DejaVuSans-32"/>
       <use xlink:href="#DejaVuSans-2e" x="63.623047"/>
       <use xlink:href="#DejaVuSans-35" x="95.410156"/>
      </g>
     </g>
    </g>
    <g id="ytick_2">
     <g id="line2d_5">
      <g>
       <use xlink:href="#m94e935d131" x="54.2" y="339.253902" style="stroke: #000000; stroke-width: 0.8"/>
      </g>
     </g>
     <g id="text_6">
      <!-- 5.0 -->
      <g transform="translate(31.296875 343.05312) scale(0.1 -0.1)">
       <defs>
        <path id="DejaVuSans-30" d="M 2034 4250 
Q 1547 4250 1301 3770 
Q 1056 3291 1056 2328 
Q 1056 1369 1301 889 
Q 1547 409 2034 409 
Q 2525 409 2770 889 
Q 3016 1369 3016 2328 
Q 3016 3291 2770 3770 
Q 2525 4250 2034 4250 
z
M 2034 4750 
Q 2819 4750 3233 4129 
Q 3647 3509 3647 2328 
Q 3647 1150 3233 529 
Q 2819 -91 2034 -91 
Q 1250 -91 836 529 
Q 422 1150 422 2328 
Q 422 3509 836 4129 
Q 1250 4750 2034 4750 
z
" transform="scale(0.015625)"/>
       </defs>
       <use xlink:href="#DejaVuSans-35"/>
       <use xlink:href="#DejaVuSans-2e" x="63.623047"/>
       <use xlink:href="#DejaVuSans-30" x="95.410156"/>
      </g>
     </g>
    </g>
    <g id="ytick_3">
     <g id="line2d_6">
      <g>
       <use xlink:href="#m94e935d131" x="54.2" y="295.706252" style="stroke: #000000; stroke-width: 0.8"/>
      </g>
     </g>
     <g id="text_7">
      <!-- 7.5 -->
      <g transform="translate(31.296875 299.505471) scale(0.1 -0.1)">
       <defs>
        <path id="DejaVuSans-37" d="M 525 4666 
L 3525 4666 
L 3525 4397 
L 1831 0 
L 1172 0 
L 2766 4134 
L 525 4134 
L 525 4666 
z
" transform="scale(0.015625)"/>
       </defs>
       <use xlink:href="#DejaVuSans-37"/>
       <use xlink:href="#DejaVuSans-2e" x="63.623047"/>
       <use xlink:href="#DejaVuSans-35" x="95.410156"/>
      </g>
     </g>
    </g>
    <g id="ytick_4">
     <g id="line2d_7">
      <g>
       <use xlink:href="#m94e935d131" x="54.2" y="252.158603" style="stroke: #000000; stroke-width: 0.8"/>
      </g>
     </g>
     <g id="text_8">
      <!-- 10.0 -->
      <g transform="translate(24.934375 255.957821) scale(0.1 -0.1)">
       <defs>
        <path id="DejaVuSans-31" d="M 794 531 
L 1825 531 
L 1825 4091 
L 703 3866 
L 703 4441 
L 1819 4666 
L 2450 4666 
L 2450 531 
L 3481 531 
L 3481 0 
L 794 0 
L 794 531 
z
" transform="scale(0.015625)"/>
       </defs>
       <use xlink:href="#DejaVuSans-31"/>
       <use xlink:href="#DejaVuSans-30" x="63.623047"/>
       <use xlink:href="#DejaVuSans-2e" x="127.246094"/>
       <use xlink:href="#DejaVuSans-30" x="159.033203"/>
      </g>
     </g>
    </g>
    <g id="ytick_5">
     <g id="line2d_8">
      <g>
       <use xlink:href="#m94e935d131" x="54.2" y="208.610953" style="stroke: #000000; stroke-width: 0.8"/>
      </g>
     </g>
     <g id="text_9">
      <!-- 12.5 -->
      <g transform="translate(24.934375 212.410172) scale(0.1 -0.1)">
       <use xlink:href="#DejaVuSans-31"/>
       <use xlink:href="#DejaVuSans-32" x="63.623047"/>
       <use xlink:href="#DejaVuSans-2e" x="127.246094"/>
       <use xlink:href="#DejaVuSans-35" x="159.033203"/>
      </g>
     </g>
    </g>
    <g id="ytick_6">
     <g id="line2d_9">
      <g>
       <use xlink:href="#m94e935d131" x="54.2" y="165.063303" style="stroke: #000000; stroke-width: 0.8"/>
      </g>
     </g>
     <g id="text_10">
      <!-- 15.0 -->
      <g transform="translate(24.934375 168.862522) scale(0.1 -0.1)">
       <use xlink:href="#DejaVuSans-31"/>
       <use xlink:href="#DejaVuSans-35" x="63.623047"/>
       <use xlink:href="#DejaVuSans-2e" x="127.246094"/>
       <use xlink:href="#DejaVuSans-30" x="159.033203"/>
      </g>
     </g>
    </g>
    <g id="ytick_7">
     <g id="line2d_10">
      <g>
       <use xlink:href="#m94e935d131" x="54.2" y="121.515654" style="stroke: #000000; stroke-width: 0.8"/>
      </g>
     </g>
     <g id="text_11">
      <!-- 17.5 -->
      <g transform="translate(24.934375 125.314873) scale(0.1 -0.1)">
       <use xlink:href="#DejaVuSans-31"/>
       <use xlink:href="#DejaVuSans-37" x="63.623047"/>
       <use xlink:href="#DejaVuSans-2e" x="127.246094"/>
       <use xlink:href="#DejaVuSans-35" x="159.033203"/>
      </g>
     </g>
    </g>
    <g id="ytick_8">
     <g id="line2d_11">
      <g>
       <use xlink:href="#m94e935d131" x="54.2" y="77.968004" style="stroke: #000000; stroke-width: 0.8"/>
      </g>
     </g>
     <g id="text_12">
      <!-- 20.0 -->
      <g transform="translate(24.934375 81.767223) scale(0.1 -0.1)">
       <use xlink:href="#DejaVuSans-32"/>
       <use xlink:href="#DejaVuSans-30" x="63.623047"/>
       <use xlink:href="#DejaVuSans-2e" x="127.246094"/>
       <use xlink:href="#DejaVuSans-30" x="159.033203"/>
      </g>
     </g>
    </g>
    <g id="ytick_9">
     <g id="line2d_12">
      <g>
       <use xlink:href="#m94e935d131" x="54.2" y="34.420355" style="stroke: #000000; stroke-width: 0.8"/>
      </g>
     </g>
     <g id="text_13">
      <!-- 22.5 -->
      <g transform="translate(24.934375 38.219574) scale(0.1 -0.1)">
       <use xlink:href="#DejaVuSans-32"/>
       <use xlink:href="#DejaVuSans-32" x="63.623047"/>
       <use xlink:href="#DejaVuSans-2e" x="127.246094"/>
       <use xlink:href="#DejaVuSans-35" x="159.033203"/>
      </g>
     </g>
    </g>
    <g id="text_14">
     <!-- Blood sugar (mmol/L) -->
     <g transform="translate(18.854688 261.65875) rotate(-90) scale(0.1 -0.1)">
      <defs>
       <path id="DejaVuSans-42" d="M 1259 2228 
L 1259 519 
L 2272 519 
Q 2781 519 3026 730 
Q 3272 941 3272 1375 
Q 3272 1813 3026 2020 
Q 2781 2228 2272 2228 
L 1259 2228 
z
M 1259 4147 
L 1259 2741 
L 2194 2741 
Q 2656 2741 2882 2914 
Q 3109 3088 3109 3444 
Q 3109 3797 2882 3972 
Q 2656 4147 2194 4147 
L 1259 4147 
z
M 628 4666 
L 2241 4666 
Q 2963 4666 3353 4366 
Q 3744 4066 3744 3513 
Q 3744 3084 3544 2831 
Q 3344 2578 2956 2516 
Q 3422 2416 3680 2098 
Q 3938 1781 3938 1306 
Q 3938 681 3513 340 
Q 3088 0 2303 0 
L 628 0 
L 628 4666 
z
" transform="scale(0.015625)"/>
       <path id="DejaVuSans-75" d="M 544 1381 
L 544 3500 
L 1119 3500 
L 1119 1403 
Q 1119 906 1312 657 
Q 1506 409 1894 409 
Q 2359 409 2629 706 
Q 2900 1003 2900 1516 
L 2900 3500 
L 3475 3500 
L 3475 0 
L 2900 0 
L 2900 538 
Q 2691 219 2414 64 
Q 2138 -91 1772 -91 
Q 1169 -91 856 284 
Q 544 659 544 1381 
z
M 1991 3584 
L 1991 3584 
z
" transform="scale(0.015625)"/>
       <path id="DejaVuSans-61" d="M 2194 1759 
Q 1497 1759 1228 1600 
Q 959 1441 959 1056 
Q 959 750 1161 570 
Q 1363 391 1709 391 
Q 2188 391 2477 730 
Q 2766 1069 2766 1631 
L 2766 1759 
L 2194 1759 
z
M 3341 1997 
L 3341 0 
L 2766 0 
L 2766 531 
Q 2569 213 2275 61 
Q 1981 -91 1556 -91 
Q 1019 -91 701 211 
Q 384 513 384 1019 
Q 384 1609 779 1909 
Q 1175 2209 1959 2209 
L 2766 2209 
L 2766 2266 
Q 2766 2663 2505 2880 
Q 2244 3097 1772 3097 
Q 1472 3097 1187 3025 
Q 903 2953 641 2809 
L 641 3341 
Q 956 3463 1253 3523 
Q 1550 3584 1831 3584 
Q 2591 3584 2966 3190 
Q 3341 2797 3341 1997 
z
" transform="scale(0.015625)"/>
       <path id="DejaVuSans-28" d="M 1984 4856 
Q 1566 4138 1362 3434 
Q 1159 2731 1159 2009 
Q 1159 1288 1364 580 
Q 1569 -128 1984 -844 
L 1484 -844 
Q 1016 -109 783 600 
Q 550 1309 550 2009 
Q 550 2706 781 3412 
Q 1013 4119 1484 4856 
L 1984 4856 
z
" transform="scale(0.015625)"/>
       <path id="DejaVuSans-2f" d="M 1625 4666 
L 2156 4666 
L 531 -594 
L 0 -594 
L 1625 4666 
z
" transform="scale(0.015625)"/>
       <path id="DejaVuSans-4c" d="M 628 4666 
L 1259 4666 
L 1259 531 
L 3531 531 
L 3531 0 
L 628 0 
L 628 4666 
z
" transform="scale(0.015625)"/>
       <path id="DejaVuSans-29" d="M 513 4856 
L 1013 4856 
Q 1481 4119 1714 3412 
Q 1947 2706 1947 2009 
Q 1947 1309 1714 600 
Q 1481 -109 1013 -844 
L 513 -844 
Q 928 -128 1133 580 
Q 1338 1288 1338 2009 
Q 1338 2731 1133 3434 
Q 928 4138 513 4856 
z
" transform="scale(0.015625)"/>
      </defs>
      <use xlink:href="#DejaVuSans-42"/>
      <use xlink:href="#DejaVuSans-6c" x="68.603516"/>
      <use xlink:href="#DejaVuSans-6f" x="96.386719"/>
      <use xlink:href="#DejaVuSans-6f" x="157.568359"/>
      <use xlink:href="#DejaVuSans-64" x="218.75"/>
      <use xlink:href="#DejaVuSans-20" x="282.226562"/>
      <use xlink:href="#DejaVuSans-73" x="314.013672"/>
      <use xlink:href="#DejaVuSans-75" x="366.113281"/>
      <use xlink:href="#DejaVuSans-67" x="429.492188"/>
      <use xlink:href="#DejaVuSans-61" x="492.96875"/>
      <use xlink:href="#DejaVuSans-72" x="554.248047"/>
      <use xlink:href="#DejaVuSans-20" x="595.361328"/>
      <use xlink:href="#DejaVuSans-28" x="627.148438"/>
      <use xlink:href="#DejaVuSans-6d" x="666.162109"/>
      <use xlink:href="#DejaVuSans-6d" x="763.574219"/>
      <use xlink:href="#DejaVuSans-6f" x="860.986328"/>
      <use xlink:href="#DejaVuSans-6c" x="922.167969"/>
      <use xlink:href="#DejaVuSans-2f" x="949.951172"/>
      <use xlink:href="#DejaVuSans-4c" x="983.642578"/>
      <use xlink:href="#DejaVuSans-29" x="1039.355469"/>
     </g>
    </g>
   </g>
   <g id="line2d_13">
    <path d="M 71.262503 306.157688 
L 207.470831 306.157688 
" clip-path="url(#p79ea07ef0e)" style="fill: none; stroke-dasharray: 1.5625,0.9375; stroke-dashoffset: 0; stroke: #474747; stroke-width: 1.25"/>
   </g>
   <g id="line2d_14">
    <path d="M 96.324266 300.93197 
L 182.409067 300.93197 
" clip-path="url(#p79ea07ef0e)" style="fill: none; stroke-dasharray: 3.125,1.25; stroke-dashoffset: 0; stroke: #474747; stroke-width: 1.25"/>
   </g>
   <g id="line2d_15">
    <path d="M 76.445281 295.706252 
L 202.288052 295.706252 
" clip-path="url(#p79ea07ef0e)" style="fill: none; stroke-dasharray: 1.5625,0.9375; stroke-dashoffset: 0; stroke: #474747; stroke-width: 1.25"/>
   </g>
   <g id="line2d_16">
    <path d="M 244.240637 307.899594 
L 375.159363 307.899594 
" clip-path="url(#p79ea07ef0e)" style="fill: none; stroke-dasharray: 1.5625,0.9375; stroke-dashoffset: 0; stroke: #474747; stroke-width: 1.25"/>
   </g>
   <g id="line2d_17">
    <path d="M 241.911453 304.415782 
L 377.488547 304.415782 
" clip-path="url(#p79ea07ef0e)" style="fill: none; stroke-dasharray: 3.125,1.25; stroke-dashoffset: 0; stroke: #474747; stroke-width: 1.25"/>
   </g>
   <g id="line2d_18">
    <path d="M 253.04383 290.480534 
L 366.35617 290.480534 
" clip-path="url(#p79ea07ef0e)" style="fill: none; stroke-dasharray: 1.5625,0.9375; stroke-dashoffset: 0; stroke: #474747; stroke-width: 1.25"/>
   </g>
   <g id="line2d_19">
    <path d="M 411.901921 293.093393 
L 548.164746 293.093393 
" clip-path="url(#p79ea07ef0e)" style="fill: none; stroke-dasharray: 1.5625,0.9375; stroke-dashoffset: 0; stroke: #474747; stroke-width: 1.25"/>
   </g>
   <g id="line2d_20">
    <path d="M 442.820817 234.739543 
L 517.24585 234.739543 
" clip-path="url(#p79ea07ef0e)" style="fill: none; stroke-dasharray: 3.125,1.25; stroke-dashoffset: 0; stroke: #474747; stroke-width: 1.25"/>
   </g>
   <g id="line2d_21">
    <path d="M 442.868043 165.063303 
L 517.198624 165.063303 
" clip-path="url(#p79ea07ef0e)" style="fill: none; stroke-dasharray: 1.5625,0.9375; stroke-dashoffset: 0; stroke: #474747; stroke-width: 1.25"/>
   </g>
   <g id="patch_3">
    <path d="M 54.2 390.04 
L 54.2 25.44 
" style="fill: none; stroke: #000000; stroke-width: 0.8; stroke-linejoin: miter; stroke-linecap: square"/>
   </g>
   <g id="patch_4">
    <path d="M 565.2 390.04 
L 565.2 25.44 
" style="fill: none; stroke: #000000; stroke-width: 0.8; stroke-linejoin: miter; stroke-linecap: square"/>
   </g>
   <g id="patch_5">
    <path d="M 54.2 390.04 
L 565.2 390.04 
" style="fill: none; stroke: #000000; stroke-width: 0.8; stroke-linejoin: miter; stroke-linecap: square"/>
   </g>
   <g id="patch_6">
    <path d="M 54.2 25.44 
L 565.2 25.44 
" style="fill: none; stroke: #000000; stroke-width: 0.8; stroke-linejoin: miter; stroke-linecap: square"/>
   </g>
   <g id="text_15">
    <!-- Blood sugar distribution by maternal risk level -->
    <g transform="translate(170.815937 19.44) scale(0.12 -0.12)">
     <defs>
      <path id="DejaVuSans-74" d="M 1172 4494 
L 1172 3500 
L 2356 3500 
L 2356 3053 
L 1172 3053 
L 1172 1153 
Q 1172 725 1289 603 
Q 1406 481 1766 481 
L 2356 481 
L 2356 0 
L 1766 0 
Q 1100 0 847 248 
Q 594 497 594 1153 
L 594 3053 
L 172 3053 
L 172 3500 
L 594 3500 
L 594 4494 
L 1172 4494 
z
" transform="scale(0.015625)"/>
      <path id="DejaVuSans-62" d="M 3116 1747 
Q 3116 2381 2855 2742 
Q 2594 3103 2138 3103 
Q 1681 3103 1420 2742 
Q 1159 2381 1159 1747 
Q 1159 1113 1420 752 
Q 1681 391 2138 391 
Q 2594 391 2855 752 
Q 3116 1113 3116 1747 
z
M 1159 2969 
Q 1341 3281 1617 3432 
Q 1894 3584 2278 3584 
Q 2916 3584 3314 3078 
Q 3713 2572 3713 1747 
Q 3713 922 3314 415 
Q 2916 -91 2278 -91 
Q 1894 -91 1617 61 
Q 1341 213 1159 525 
L 1159 0 
L 581 0 
L 581 4863 
L 1159 4863 
L 1159 2969 
z
" transform="scale(0.015625)"/>
      <path id="DejaVuSans-6e" d="M 3513 2113 
L 3513 0 
L 2938 0 
L 2938 2094 
Q 2938 2591 2744 2837 
Q 2550 3084 2163 3084 
Q 1697 3084 1428 2787 
Q 1159 2491 1159 1978 
L 1159 0 
L 581 0 
L 581 3500 
L 1159 3500 
L 1159 2956 
Q 1366 3272 1645 3428 
Q 1925 3584 2291 3584 
Q 2894 3584 3203 3211 
Q 3513 2838 3513 2113 
z
" transform="scale(0.015625)"/>
      <path id="DejaVuSans-79" d="M 2059 -325 
Q 1816 -950 1584 -1140 
Q 1353 -1331 966 -1331 
L 506 -1331 
L 506 -850 
L 844 -850 
Q 1081 -850 1212 -737 
Q 1344 -625 1503 -206 
L 1606 56 
L 191 3500 
L 800 3500 
L 1894 763 
L 2988 3500 
L 3597 3500 
L 2059 -325 
z
" transform="scale(0.015625)"/>
     </defs>
     <use xlink:href="#DejaVuSans-42"/>
     <use xlink:href="#DejaVuSans-6c" x="68.603516"/>
     <use xlink:href="#DejaVuSans-6f" x="96.386719"/>
     <use xlink:href="#DejaVuSans-6f" x="157.568359"/>
     <use xlink:href="#DejaVuSans-64" x="218.75"/>
     <use xlink:href="#DejaVuSans-20" x="282.226562"/>
     <use xlink:href="#DejaVuSans-73" x="314.013672"/>
     <use xlink:href="#DejaVuSans-75" x="366.113281"/>
     <use xlink:href="#DejaVuSans-67" x="429.492188"/>
     <use xlink:href="#DejaVuSans-61" x="492.96875"/>
     <use xlink:href="#DejaVuSans-72" x="554.248047"/>
     <use xlink:href="#DejaVuSans-20" x="595.361328"/>
     <use xlink:href="#DejaVuSans-64" x="627.148438"/>
     <use xlink:href="#DejaVuSans-69" x="690.625"/>
     <use xlink:href="#DejaVuSans-73" x="718.408203"/>
     <use xlink:href="#DejaVuSans-74" x="770.507812"/>
     <use xlink:href="#DejaVuSans-72" x="809.716797"/>
     <use xlink:href="#DejaVuSans-69" x="850.830078"/>
     <use xlink:href="#DejaVuSans-62" x="878.613281"/>
     <use xlink:href="#DejaVuSans-75" x="942.089844"/>
     <use xlink:href="#DejaVuSans-74" x="1005.46875"/>
     <use xlink:href="#DejaVuSans-69" x="1044.677734"/>
     <use xlink:href="#DejaVuSans-6f" x="1072.460938"/>
     <use xlink:href="#DejaVuSans-6e" x="1133.642578"/>
     <use xlink:href="#DejaVuSans-20" x="1197.021484"/>
     <use xlink:href="#DejaVuSans-62" x="1228.808594"/>
     <use xlink:href="#DejaVuSans-79" x="1292.285156"/>
     <use xlink:href="#DejaVuSans-20" x="1351.464844"/>
     <use xlink:href="#DejaVuSans-6d" x="1383.251953"/>
     <use xlink:href="#DejaVuSans-61" x="1480.664062"/>
     <use xlink:href="#DejaVuSans-74" x="1541.943359"/>
     <use xlink:href="#DejaVuSans-65" x="1581.152344"/>
     <use xlink:href="#DejaVuSans-72" x="1642.675781"/>
     <use xlink:href="#DejaVuSans-6e" x="1682.039062"/>
     <use xlink:href="#DejaVuSans-61" x="1745.417969"/>
     <use xlink:href="#DejaVuSans-6c" x="1806.697266"/>
     <use xlink:href="#DejaVuSans-20" x="1834.480469"/>
     <use xlink:href="#DejaVuSans-72" x="1866.267578"/>
     <use xlink:href="#DejaVuSans-69" x="1907.380859"/>
     <use xlink:href="#DejaVuSans-73" x="1935.164062"/>
     <use xlink:href="#DejaVuSans-6b" x="1987.263672"/>
     <use xlink:href="#DejaVuSans-20" x="2045.173828"/>
     <use xlink:href="#DejaVuSans-6c" x="2076.960938"/>
     <use xlink:href="#DejaVuSans-65" x="2104.744141"/>
     <use xlink:href="#DejaVuSans-76" x="2166.267578"/>
     <use xlink:href="#DejaVuSans-65" x="2225.447266"/>
     <use xlink:href="#DejaVuSans-6c" x="2286.970703"/>
    </g>
   </g>
  </g>
 </g>
 <defs>
  <clipPath id="p79ea07ef0e">
   <rect x="54.2" y="25.44" width="511" height="364.6"/>
  </clipPath>
 </defs>
</svg>
